solid ASCII
  facet normal -0.000000e+00 0.000000e+00 1.000000e+00
    outer loop
      vertex   -4.440892e-16 3.000000e+00 3.000000e+00
      vertex   -4.440892e-16 0.000000e+00 3.000000e+00
      vertex   3.000000e+00 3.000000e+00 3.000000e+00
    endloop
  endfacet
  facet normal 0.000000e+00 0.000000e+00 1.000000e+00
    outer loop
      vertex   3.000000e+00 3.000000e+00 3.000000e+00
      vertex   -4.440892e-16 0.000000e+00 3.000000e+00
      vertex   3.000000e+00 0.000000e+00 3.000000e+00
    endloop
  endfacet
  facet normal -0.000000e+00 -0.000000e+00 -1.000000e+00
    outer loop
      vertex   3.000000e+00 3.000000e+00 0.000000e+00
      vertex   3.000000e+00 0.000000e+00 0.000000e+00
      vertex   -4.440892e-16 3.000000e+00 0.000000e+00
    endloop
  endfacet
  facet normal 0.000000e+00 0.000000e+00 -1.000000e+00
    outer loop
      vertex   -4.440892e-16 3.000000e+00 0.000000e+00
      vertex   3.000000e+00 0.000000e+00 0.000000e+00
      vertex   -4.440892e-16 0.000000e+00 0.000000e+00
    endloop
  endfacet
  facet normal 1.000000e+00 -0.000000e+00 0.000000e+00
    outer loop
      vertex   3.000000e+00 0.000000e+00 3.000000e+00
      vertex   3.000000e+00 0.000000e+00 0.000000e+00
      vertex   3.000000e+00 3.000000e+00 3.000000e+00
    endloop
  endfacet
  facet normal 1.000000e+00 0.000000e+00 0.000000e+00
    outer loop
      vertex   3.000000e+00 3.000000e+00 3.000000e+00
      vertex   3.000000e+00 0.000000e+00 0.000000e+00
      vertex   3.000000e+00 3.000000e+00 0.000000e+00
    endloop
  endfacet
  facet normal 0.000000e+00 -1.000000e+00 0.000000e+00
    outer loop
      vertex   -4.440892e-16 0.000000e+00 3.000000e+00
      vertex   -4.440892e-16 0.000000e+00 0.000000e+00
      vertex   3.000000e+00 0.000000e+00 3.000000e+00
    endloop
  endfacet
  facet normal 0.000000e+00 -1.000000e+00 -0.000000e+00
    outer loop
      vertex   3.000000e+00 0.000000e+00 3.000000e+00
      vertex   -4.440892e-16 0.000000e+00 0.000000e+00
      vertex   3.000000e+00 0.000000e+00 0.000000e+00
    endloop
  endfacet
  facet normal -1.000000e+00 -0.000000e+00 -0.000000e+00
    outer loop
      vertex   -4.440892e-16 3.000000e+00 3.000000e+00
      vertex   -4.440892e-16 3.000000e+00 0.000000e+00
      vertex   -4.440892e-16 0.000000e+00 3.000000e+00
    endloop
  endfacet
  facet normal -1.000000e+00 0.000000e+00 0.000000e+00
    outer loop
      vertex   -4.440892e-16 0.000000e+00 3.000000e+00
      vertex   -4.440892e-16 3.000000e+00 0.000000e+00
      vertex   -4.440892e-16 0.000000e+00 0.000000e+00
    endloop
  endfacet
  facet normal 0.000000e+00 1.000000e+00 0.000000e+00
    outer loop
      vertex   3.000000e+00 3.000000e+00 3.000000e+00
      vertex   3.000000e+00 3.000000e+00 0.000000e+00
      vertex   -4.440892e-16 3.000000e+00 3.000000e+00
    endloop
  endfacet
  facet normal 0.000000e+00 1.000000e+00 0.000000e+00
    outer loop
      vertex   -4.440892e-16 3.000000e+00 3.000000e+00
      vertex   3.000000e+00 3.000000e+00 0.000000e+00
      vertex   -4.440892e-16 3.000000e+00 0.000000e+00
    endloop
  endfacet
endsolid
